<svg width="1000.0000000000001" height="404" xmlns="http://www.w3.org/2000/svg">
 <metadata>Svg Vector Icons : http://www.onlinewebfonts.com/icon</metadata>
 <defs>
  <linearGradient id="svg_20" x1="0.320313" y1="0" x2="0.785156" y2="1" spreadMethod="pad">
   <stop stop-color="#edd5cd" offset="5%"/>
   <stop stop-color="#d19695" offset="100%"/>
  </linearGradient>
  <linearGradient id="svg_23" x1="0.101563" y1="0" x2="0.820313" y2="0.9375" spreadMethod="pad">
   <stop stop-color="#edd5cd" offset="5%" stop-opacity="0.5"/>
   <stop stop-color="#c3807f" offset="100%" stop-opacity="0.7"/>
  </linearGradient>
  <linearGradient id="svg_30" x1="0" y1="0.746094" x2="0.996094" y2="0.210938" spreadMethod="pad">
   <stop stop-color="#edd5cd" offset="5%"/>
   <stop stop-color="#d19695" offset="100%"/>
  </linearGradient>
  <linearGradient id="svg_31" x1="0" y1="0.863281" x2="0.90625" y2="0.183594" spreadMethod="pad">
   <stop stop-color="#edd5cd" offset="5%" stop-opacity="0.5"/>
   <stop stop-color="#c3807f" offset="100%" stop-opacity="0.7"/>
  </linearGradient>
  <linearGradient id="svg_32" x1="0.308594" y1="0" x2="0.734375" y2="1" spreadMethod="pad">
   <stop stop-color="#edd5cd" offset="5%"/>
   <stop stop-color="#d19695" offset="100%"/>
  </linearGradient>
  <linearGradient id="svg_14" x1="0.265625" y1="0" x2="0.808594" y2="1">
   <stop stop-color="#ffd881" offset="0%"/>
   <stop stop-color="#d97b7a" offset="100%"/>
  </linearGradient>
  <linearGradient id="grad_stroke" x1="0.265625" y1="0" x2="0.808594" y2="1">
   <stop stop-color="#f3c769" offset="0%" stop-opacity="0.9"/>
   <stop stop-color="#be6c6a" offset="100%" stop-opacity="0.6"/>
  </linearGradient>
 </defs>
 <g>
  <title>background</title>
  <rect x="-1" y="-1" width="1002" height="406" id="canvas_background" fill="none"/>
 </g>
 <g>
  <title>Layer 1</title>
  <g id="svg_1" stroke="null">
   <path fill="url(#svg_14)" d="m790.73417,1.33664l-581.46841,0c-114.74473,0 -208.59899,89.87997 -208.59899,199.73328c0,109.8533 93.85426,199.73328 208.59899,199.73328l581.46841,0c114.74473,0 208.59899,-89.87998 208.59899,-199.73328c0,-109.8533 -93.85426,-199.73328 -208.59899,-199.73328l0,0zm-568.62842,219.5028l-60.02188,0l0,59.91998l-40.45618,0l0,-59.91998l-59.91999,0l0,-40.45618l59.91999,0l0,-60.02189l40.45618,0l0,60.02189l60.02188,0l0,40.45618zm514.4151,130.84567l-473.04177,0l0,-301.33229l473.04177,0l0,301.33229zm64.09808,-123.30472c-15.28571,0 -27.81999,-12.43238 -27.81999,-27.71809c0,-15.38762 12.43238,-27.81999 27.81999,-27.81999c15.38761,0 27.81999,12.53428 27.81999,27.81999c0,15.28571 -12.43238,27.71809 -27.81999,27.71809zm56.0476,56.0476c-15.38761,0 -27.81999,-12.43238 -27.81999,-27.81999c0,-15.38762 12.43238,-27.81999 27.81999,-27.81999c15.28571,0 27.71809,12.43237 27.71809,27.81999c0.10191,15.38761 -12.43238,27.81999 -27.71809,27.81999zm0,-112.09521c-15.38761,0 -27.81999,-12.53428 -27.81999,-27.71808c0,-15.38762 12.43238,-27.82 27.81999,-27.82c15.28571,0 27.71809,12.53429 27.71809,27.82c0.10191,15.1838 -12.43238,27.71808 -27.71809,27.71808zm56.04761,56.04761c-15.38762,0 -27.71809,-12.43238 -27.71809,-27.71809c0,-15.38762 12.43238,-27.81999 27.71809,-27.81999c15.28571,0 27.81999,12.53428 27.81999,27.81999c0,15.28571 -12.43238,27.71809 -27.81999,27.71809z" id="svg_2" stroke-width="2" stroke="url(#grad_stroke)"/>
  </g>
  <path stroke="url(#svg_23)" id="svg_5" d="m801.02003,228.83512c15.72028,0 28.46276,-12.74327 28.46276,-28.46277c0,-15.71952 -12.74248,-28.46277 -28.46276,-28.46277c-15.71952,0 -28.46278,12.74325 -28.46278,28.46277c0,15.7195 12.74326,28.46277 28.46278,28.46277zm4.57271,-47.50594l6.92515,6.92894l-12.11642,12.11572l12.11642,12.11646l-6.92515,6.92665l-19.04093,-19.0431l19.04093,-19.04467l0,0z" stroke-width="2" fill="url(#svg_20)"/>
  <path stroke="url(#svg_23)" id="svg_6" d="m912.95155,172.11776c-15.56079,0 -28.17538,12.6146 -28.17538,28.17541c0,15.56076 12.61459,28.17541 28.17538,28.17541c15.56079,0 28.17537,-12.61465 28.17537,-28.17541c0,-15.56081 -12.61458,-28.17541 -28.17537,-28.17541zm-4.52653,47.02855l-6.85529,-6.86125l11.99414,-11.99338l-11.99414,-11.99338l6.85529,-6.85532l18.85085,18.8487l-18.85085,18.85463z" stroke-width="2" fill="url(#svg_32)"/>
  <path stroke="url(#svg_31)" transform="rotate(90 856.4896240234375,144.6598205566407) " id="svg_7" d="m856.48964,172.90983c15.60277,0 28.25,-12.64802 28.25,-28.25c0,-15.60202 -12.64723,-28.25001 -28.25,-28.25001c-15.60201,0 -28.25001,12.64799 -28.25001,28.25001c0,15.60198 12.648,28.25 28.25001,28.25zm4.53854,-47.15082l6.87338,6.87713l-12.02585,12.02516l12.02585,12.02588l-6.87338,6.87487l-18.8986,-18.90075l18.8986,-18.90229l0,0z" stroke-width="2" fill="url(#svg_30)"/>
  <path transform="rotate(90 856.797607421875,256.67633056640636) " stroke="url(#svg_31)" id="svg_9" d="m856.79765,228.50091c-15.56079,0 -28.17538,12.6146 -28.17538,28.17541c0,15.56076 12.61459,28.17541 28.17538,28.17541c15.56079,0 28.17537,-12.61465 28.17537,-28.17541c0,-15.56081 -12.61458,-28.17541 -28.17537,-28.17541zm-4.52653,47.02855l-6.85529,-6.86125l11.99414,-11.99339l-11.99414,-11.99337l6.85529,-6.85532l18.85085,18.84869l-18.85085,18.85464z" stroke-width="2" fill="url(#svg_30)"/>
  <path id="svg_13" d="m121.97576,179.83884l-0.14284,-60.28552l41.71414,0l0,60.28551l59.85694,0l0,41.57129l-59.71408,0l0,59.85694l-41.857,0l0,-60.42837l-59.28551,0l-0.14286,-40.57129l29.77683,0l29.77682,0" stroke-width="2" stroke="url(#svg_23)" fill="url(#svg_20)"/>
  <path fill="#edd5cd" stroke-width="0" d="m812.64094,188.26781l-12.25031,12.24957l12.25031,12.24957l-7.00093,7.00467l-19.25121,-19.25423l19.25121,-19.25571" id="svg_3" stroke="#edd5cd"/>
  <path fill="#edd5cd" stroke-width="0" d="m927.7103,187.9737l-12.25031,12.24957l12.25031,12.24956l-7.00093,7.00467l-19.25122,-19.25423l19.25122,-19.25571" id="svg_4" stroke="#edd5cd" transform="rotate(-180 914.584228515625,200.2225341796875) "/>
  <path fill="#edd5cd" stroke-width="0" d="m869.57609,131.03854l-12.25031,12.24958l12.25031,12.24956l-7.00092,7.00467l-19.25122,-19.25423l19.25122,-19.25571" id="svg_8" stroke="#edd5cd" transform="rotate(90 856.4500122070312,143.2873840332032) "/>
  <path fill="#edd5cd" stroke-width="0" d="m870.15801,245.78488l-12.25031,12.24958l12.25031,12.24956l-7.00092,7.00467l-19.25122,-19.25423l19.25122,-19.25571" id="svg_10" stroke="#edd5cd" transform="rotate(-90 857.0319213867189,258.03372192382807) "/>
 </g>
</svg>