<svg width="1000.0000000000001" height="404" xmlns="http://www.w3.org/2000/svg">
 <metadata>Svg Vector Icons : http://www.onlinewebfonts.com/icon</metadata>

  <linearGradient id="linear-gradient">
   <stop stop-color="#ffd881" offset="0%"/>
   <stop stop-color="#d97b7a" offset="100%"/>
  </linearGradient>

  <radialGradient id="radial-gradient">
   <stop stop-color="#edd5cd" offset="5%" stop-opacity="0.7"/>
   <!-- <stop stop-color="#ffd881" offset="40%" stop-opacity="0.5"/> -->
   <stop stop-color="#d97c7ab6" offset="100%" stop-opacity="0.9"/>
   <!-- <stop stop-color="#8295c0" offset="0%" stop-opacity="0.5"/>
   <stop stop-color="#7189bf" offset="50%" stop-opacity="0.5"/>
   <stop stop-color="#52607e" offset="100%" stop-opacity="0.7"/> -->
  </radialGradient>

 <g>
  <title>background</title>
  <rect x="-1" y="-1" width="1002" height="406" id="canvas_background" fill="none"/>
 </g>
 <g>
  <title>Layer 1</title>
  <!-- Градиент -->
  <g id="svg_1" stroke="null">
   <path fill="url(#linear-gradient)" d="m790.73417,1.33664l-581.46841,0c-114.74473,0 -208.59899,89.87997 -208.59899,199.73328c0,109.8533 93.85426,199.73328 208.59899,199.73328l581.46841,0c114.74473,0 208.59899,-89.87998 208.59899,-199.73328c0,-109.8533 -93.85426,-199.73328 -208.59899,-199.73328l0,0zm-568.62842,219.5028l-60.02188,0l0,59.91998l-40.45618,0l0,-59.91998l-59.91999,0l0,-40.45618l59.91999,0l0,-60.02189l40.45618,0l0,60.02189l60.02188,0l0,40.45618zm514.4151,130.84567l-473.04177,0l0,-301.33229l473.04177,0l0,301.33229zm64.09808,-123.30472c-15.28571,0 -27.81999,-12.43238 -27.81999,-27.71809c0,-15.38762 12.43238,-27.81999 27.81999,-27.81999c15.38761,0 27.81999,12.53428 27.81999,27.81999c0,15.28571 -12.43238,27.71809 -27.81999,27.71809zm56.0476,56.0476c-15.38761,0 -27.81999,-12.43238 -27.81999,-27.81999c0,-15.38762 12.43238,-27.81999 27.81999,-27.81999c15.28571,0 27.71809,12.43237 27.71809,27.81999c0.10191,15.38761 -12.43238,27.81999 -27.71809,27.81999zm0,-112.09521c-15.38761,0 -27.81999,-12.53428 -27.81999,-27.71808c0,-15.38762 12.43238,-27.82 27.81999,-27.82c15.28571,0 27.71809,12.53429 27.71809,27.82c0.10191,15.1838 -12.43238,27.71808 -27.71809,27.71808zm56.04761,56.04761c-15.38762,0 -27.71809,-12.43238 -27.71809,-27.71809c0,-15.38762 12.43238,-27.81999 27.71809,-27.81999c15.28571,0 27.81999,12.53428 27.81999,27.81999c0,15.28571 -12.43238,27.71809 -27.81999,27.71809z" id="svg_2" stroke-width="2" stroke="#ffd7818a"/>
  </g>
  <path stroke="url(#radial-gradient)" id="svg_5" d="m801.02003,228.83512c15.72028,0 28.46276,-12.74327 28.46276,-28.46277c0,-15.71952 -12.74248,-28.46277 -28.46276,-28.46277c-15.71952,0 -28.46278,12.74325 -28.46278,28.46277c0,15.7195 12.74326,28.46277 28.46278,28.46277zm4.57271,-47.50594l6.92515,6.92894l-12.11642,12.11572l12.11642,12.11646l-6.92515,6.92665l-19.04093,-19.0431l19.04093,-19.04467l0,0z" stroke-width="2" fill="url(#radial-gradient)"/>
  <path stroke="url(#radial-gradient)" id="svg_6" d="m912.951554,172.117759c-15.560792,0 -28.175384,12.614599 -28.175384,28.175414c0,15.560756 12.614595,28.175411 28.175384,28.175411c15.56079,0 28.175367,-12.614656 28.175367,-28.175411c0,-15.560815 -12.614577,-28.175414 -28.175367,-28.175414zm-4.526536,47.028548l-6.855284,-6.861249l11.994135,-11.993383l-11.994135,-11.993378l6.855284,-6.855315l18.85085,18.848693l-18.85085,18.854632z" stroke-width="2" fill="url(#radial-gradient)"/>
  <path stroke="url(#radial-gradient)" transform="rotate(90 856.4896240234375,144.6598205566407) " id="svg_7" d="m856.489638,172.909825c15.60277,0 28.25,-12.64802 28.25,-28.25c0,-15.60202 -12.64723,-28.25001 -28.25,-28.25001c-15.60201,0 -28.25001,12.64799 -28.25001,28.25001c0,15.60198 12.648,28.25 28.25001,28.25zm4.53854,-47.15082l6.87338,6.87714l-12.02585,12.02516l12.02585,12.02588l-6.87338,6.87487l-18.8986,-18.90075l18.8986,-18.9023l0,0z" stroke-width="2" fill="url(#radial-gradient)"/>
  <path transform="rotate(90 856.797607421875,256.67630004882824) " stroke="url(#radial-gradient)" id="svg_9" d="m856.797648,228.500912c-15.56079,0 -28.17538,12.6146 -28.17538,28.17541c0,15.56076 12.61459,28.17541 28.17538,28.17541c15.56079,0 28.17537,-12.61465 28.17537,-28.17541c0,-15.56081 -12.61458,-28.17541 -28.17537,-28.17541zm-4.52653,47.02855l-6.85529,-6.86125l11.99414,-11.99339l-11.99414,-11.99337l6.85529,-6.85532l18.85085,18.84869l-18.85085,18.85464z" stroke-width="2" fill="url(#radial-gradient)"/>
  <path id="svg_13" d="m121.14243,179.83884l-0.14284,-60.28552l41.71414,0l0,60.28551l59.85694,0l0,41.57129l-59.71408,0l0,59.85694l-41.857,0l0,-60.42837l-59.28551,0l-0.14286,-40.57129l29.776825,0l29.776825,0" stroke-width="2" stroke="url(#radial-gradient)" fill="url(#radial-gradient)"/>
 </g>
</svg>