<svg width="1000" height="404" xmlns="http://www.w3.org/2000/svg">
 <metadata>Svg Vector Icons : http://www.onlinewebfonts.com/icon</metadata>

 <g>
  <title>background</title>
  <rect fill="none" id="canvas_background" height="406" width="1002" y="-1" x="-1"/>
 </g>
 <g>
  <title>Layer 1</title>
   <!-- Градиент -->
  <linearGradient id="linear-gradient">
    <stop offset="0%" stop-color="#ffd881"/>
    <stop offset="100%" stop-color="#d97b7a"/>
  </linearGradient>

  <g stroke="null" id="svg_1">
   <path stroke="#ffd7818a" stroke-width="2" id="svg_2" d="m790.734171,1.336639l-581.468412,0c-114.744731,0 -208.598991,89.879975 -208.598991,199.733279c0,109.853303 93.85426,199.733279 208.598991,199.733279l581.468412,0c114.744731,0 208.598991,-89.879975 208.598991,-199.733279c0,-109.853303 -93.85426,-199.733279 -208.598991,-199.733279l0,0zm-568.628416,219.502797l-60.021888,0l0,59.919984l-40.456179,0l0,-59.919984l-59.919984,0l0,-40.456179l59.919984,0l0,-60.021888l40.456179,0l0,60.021888l60.021888,0l0,40.456179zm514.415097,130.845679l-473.041775,0l0,-301.332299l473.041775,0l0,301.332299zm64.098078,-123.304728c-15.28571,0 -27.819992,-12.432378 -27.819992,-27.718088c0,-15.387615 12.432378,-27.819992 27.819992,-27.819992c15.387615,0 27.819992,12.534282 27.819992,27.819992c0,15.28571 -12.432378,27.718088 -27.819992,27.718088zm56.047604,56.047604c-15.387615,0 -27.819992,-12.432378 -27.819992,-27.819992c0,-15.387615 12.432378,-27.819992 27.819992,-27.819992c15.28571,0 27.718088,12.432378 27.718088,27.819992c0.101905,15.387615 -12.432378,27.819992 -27.718088,27.819992zm0,-112.095207c-15.387615,0 -27.819992,-12.534282 -27.819992,-27.718088c0,-15.387615 12.432378,-27.819992 27.819992,-27.819992c15.28571,0 27.718088,12.534282 27.718088,27.819992c0.101905,15.183805 -12.432378,27.718088 -27.718088,27.718088zm56.047604,56.047604c-15.387615,0 -27.718088,-12.432378 -27.718088,-27.718088c0,-15.387615 12.432378,-27.819992 27.718088,-27.819992c15.28571,0 27.819992,12.534282 27.819992,27.819992c0,15.28571 -12.432378,27.718088 -27.819992,27.718088z" fill="url(#linear-gradient)"/>
  </g>
 </g>
</svg>