<svg width="1562" height="1550" xmlns="http://www.w3.org/2000/svg">

 <g>
  <title>background</title>
  <rect fill="none" id="canvas_background" height="1552" width="1564" y="-1" x="-1"/>
 </g>
 <g>
  <title>Layer 1</title>
  <path fill="#fa5c18" id="svg_1" d="m728.329869,1274.996436l454,-454q19,-19 19,-45t-19,-45l-454,-454q-19,-19 -45,-19t-45,19l-102,102q-19,19 -19,45t19,45l307,307l-307,307q-19,19 -19,45t19,45l102,102q19,19 45,19t45,-19zm819,-499q0,209 -103,385.5t-279.5,279.5t-385.5,103t-385.5,-103t-279.5,-279.5t-103,-385.5t103,-385.5t279.5,-279.5t385.5,-103t385.5,103t279.5,279.5t103,385.5z"/>
 </g>
</svg>