<svg width="91" height="91" xmlns="http://www.w3.org/2000/svg">

 <g>
  <title>background</title>
  <rect fill="none" id="canvas_background" height="402" width="582" y="-1" x="-1"/>
 </g>
 <g>
  <title>Layer 1</title>
  <g id="svg_1">
   <path fill="#272a30" id="svg_2" d="m64.501,41.728c-1.25,-1.273 -8.891,-7.173 -11.419,-8.834c-5.48,-3.601 -11.287,-6.697 -16.801,-10.254c-2.157,-1.392 -5.14,0.428 -5.092,2.922c0.183,9.706 0.502,35.322 0.532,38.427c0.012,1.336 -0.168,2.985 0.227,4.291c0.536,1.781 2.951,3.163 4.666,1.897c10.373,-7.658 21.555,-14.232 32.188,-21.53c4.611,-3.163 0.122,-9.607 -4.301,-6.919zm-6.94,0.187c1.318,0.709 2.774,1.32 4.21,1.962c-7.582,6.152 -15.566,11.869 -23.577,17.474c0.024,-2.582 0.044,-5.167 0.059,-7.748c0.04,-7.325 0.104,-14.673 -0.081,-22.004c3.724,2.143 7.499,4.216 11.325,6.143c2.705,1.361 5.395,2.74 8.064,4.173z"/>
   <path fill="#272a30" id="svg_3" d="m43.832,1.828c-1.306,-0.024 -2.258,0.522 -2.858,1.324c-17.026,-0.366 -32.829,14.189 -38.361,29.402c-5.956,16.386 -0.171,35.66 13.032,46.847c15,12.713 38.843,12.363 55.442,2.746c15.495,-8.975 22.427,-27.884 18.616,-45.062c-4.648,-20.953 -24.989,-34.887 -45.871,-35.257zm28.815,72.103c-12.785,10.559 -35.526,12.845 -49.669,3.923c-12.538,-7.915 -19.853,-23.962 -17.011,-38.597c1.684,-8.655 6.466,-16.264 12.821,-22.276c6.201,-5.863 13.53,-9.047 21.424,-11.71c-0.139,1.995 1.066,4.105 3.62,4.08c15.842,-0.167 31.835,8.737 38.295,23.559c5.961,13.679 2.097,31.461 -9.48,41.021z"/>
  </g>
 </g>
</svg>