<svg width="1000" height="404" xmlns="http://www.w3.org/2000/svg">
 <metadata></metadata>
 <defs>
  <linearGradient spreadMethod="pad" y2="1" x2="0.785156" y1="0" x1="0.320313" id="svg_20">
   <stop offset="5%" stop-color="#edd5cd"/>
   <stop offset="100%" stop-color="#d19695"/>
  </linearGradient>
  <linearGradient spreadMethod="pad" y2="0.9375" x2="0.820313" y1="0" x1="0.101563" id="svg_23">
   <stop stop-opacity="0.5" offset="5%" stop-color="#edd5cd"/>
   <stop stop-opacity="0.7" offset="100%" stop-color="#c3807f"/>
  </linearGradient>
  <linearGradient spreadMethod="pad" y2="0.210938" x2="0.996094" y1="0.746094" x1="0" id="svg_30">
   <stop offset="5%" stop-color="#edd5cd"/>
   <stop offset="100%" stop-color="#d19695"/>
  </linearGradient>
  <linearGradient spreadMethod="pad" y2="0.183594" x2="0.90625" y1="0.863281" x1="0" id="svg_31">
   <stop stop-opacity="0.5" offset="5%" stop-color="#edd5cd"/>
   <stop stop-opacity="0.7" offset="100%" stop-color="#c3807f"/>
  </linearGradient>
  <linearGradient spreadMethod="pad" y2="1" x2="0.734375" y1="0" x1="0.308594" id="svg_32">
   <stop offset="5%" stop-color="#edd5cd"/>
   <stop offset="100%" stop-color="#d19695"/>
  </linearGradient>
 </defs>

 <g>
  <title>Layer 1</title>

  <g id="up">
    <path fill="url(#svg_30)" stroke-width="2" d="m856.48964,172.90983c15.60277,0 28.25,-12.64802 28.25,-28.25c0,-15.60202 -12.64723,-28.25001 -28.25,-28.25001c-15.60201,0 -28.25001,12.64799 -28.25001,28.25001c0,15.60198 12.648,28.25 28.25001,28.25zm4.53854,-47.15082l6.87338,6.87713l-12.02585,12.02516l12.02585,12.02588l-6.87338,6.87487l-18.8986,-18.90075l18.8986,-18.90229l0,0z" id="svg_7" transform="rotate(90 856.4896240234375,144.6598205566407) " stroke="url(#svg_31)"/>
    <path transform="rotate(90 856.4500122070312,143.2873840332032) " stroke="#edd5cd" id="svg_8" d="m869.57609,131.03854l-12.25031,12.24958l12.25031,12.24956l-7.00092,7.00467l-19.25122,-19.25423l19.25122,-19.25571" stroke-width="0" fill="#edd5cd"/>
  </g>
  <g id="right">
    <path fill="url(#svg_32)" stroke-width="2" d="m912.95155,172.11776c-15.56079,0 -28.17538,12.6146 -28.17538,28.17541c0,15.56076 12.61459,28.17541 28.17538,28.17541c15.56079,0 28.17537,-12.61465 28.17537,-28.17541c0,-15.56081 -12.61458,-28.17541 -28.17537,-28.17541zm-4.52653,47.02855l-6.85529,-6.86125l11.99414,-11.99338l-11.99414,-11.99338l6.85529,-6.85532l18.85085,18.8487l-18.85085,18.85463z" id="svg_6" stroke="url(#svg_23)"/>
    <path transform="rotate(-180 914.584228515625,200.2225341796875) " stroke="#edd5cd" id="svg_4" d="m927.7103,187.9737l-12.25031,12.24957l12.25031,12.24956l-7.00093,7.00467l-19.25122,-19.25423l19.25122,-19.25571" stroke-width="0" fill="#edd5cd"/>
  </g>
  <g id="down">
    <path fill="url(#svg_30)" stroke-width="2" d="m856.79765,228.50091c-15.56079,0 -28.17538,12.6146 -28.17538,28.17541c0,15.56076 12.61459,28.17541 28.17538,28.17541c15.56079,0 28.17537,-12.61465 28.17537,-28.17541c0,-15.56081 -12.61458,-28.17541 -28.17537,-28.17541zm-4.52653,47.02855l-6.85529,-6.86125l11.99414,-11.99339l-11.99414,-11.99337l6.85529,-6.85532l18.85085,18.84869l-18.85085,18.85464z" id="svg_9" stroke="url(#svg_31)" transform="rotate(90 856.797607421875,256.67633056640636) "/>
    <path transform="rotate(-90 857.0319213867189,258.03372192382807) " stroke="#edd5cd" id="svg_10" d="m870.15801,245.78488l-12.25031,12.24958l12.25031,12.24956l-7.00092,7.00467l-19.25122,-19.25423l19.25122,-19.25571" stroke-width="0" fill="#edd5cd"/>
  </g>
  <g id="left">
    <path stroke="#edd5cd" id="svg_3" d="m812.64094,188.26781l-12.25031,12.24957l12.25031,12.24957l-7.00093,7.00467l-19.25121,-19.25423l19.25121,-19.25571" stroke-width="0" fill="#edd5cd"/>
    <path fill="url(#svg_20)" stroke-width="2" d="m801.02003,228.83512c15.72028,0 28.46276,-12.74327 28.46276,-28.46277c0,-15.71952 -12.74248,-28.46277 -28.46276,-28.46277c-15.71952,0 -28.46278,12.74325 -28.46278,28.46277c0,15.7195 12.74326,28.46277 28.46278,28.46277zm4.57271,-47.50594l6.92515,6.92894l-12.11642,12.11572l12.11642,12.11646l-6.92515,6.92665l-19.04093,-19.0431l19.04093,-19.04467l0,0z" id="svg_5" stroke="url(#svg_23)"/>
  </g>
  
  <path fill="url(#svg_20)" stroke="url(#svg_23)" stroke-width="2" d="m121.97576,179.83884l-0.14284,-60.28552l41.71414,0l0,60.28551l59.85694,0l0,41.57129l-59.71408,0l0,59.85694l-41.857,0l0,-60.42837l-59.28551,0l-0.14286,-40.57129l29.77683,0l29.77682,0" id="svg_13"/>
 </g>
</svg>