<svg width="1000.0000000000001" height="404" xmlns="http://www.w3.org/2000/svg">
 <metadata>Svg Vector Icons : http://www.onlinewebfonts.com/icon</metadata>
 <defs>
  <linearGradient id="svg_23" x1="0.101563" y1="0" x2="0.820313" y2="0.9375" spreadMethod="pad">
   <stop stop-color="#edd5cd" offset="5%" stop-opacity="0.5"/>
   <stop stop-color="#c3807f" offset="100%" stop-opacity="0.7"/>
  </linearGradient>
  <linearGradient id="svg_32" x1="0.308594" y1="0" x2="0.734375" y2="1" spreadMethod="pad">
   <stop stop-color="#edd5cd" offset="5%"/>
   <stop stop-color="#d19695" offset="100%"/>
  </linearGradient>
 </defs>
 <g>
  <title>background</title>
  <rect x="-1" y="-1" width="1002" height="406" id="canvas_background" fill="none"/>
 </g>
 <g>
  <title>Layer 1</title>
  <path stroke="url(#svg_23)" id="svg_6" d="m912.95155,172.11776c-15.56079,0 -28.17538,12.6146 -28.17538,28.17541c0,15.56076 12.61459,28.17541 28.17538,28.17541c15.56079,0 28.17537,-12.61465 28.17537,-28.17541c0,-15.56081 -12.61458,-28.17541 -28.17537,-28.17541zm-4.52653,47.02855l-6.85529,-6.86125l11.99414,-11.99338l-11.99414,-11.99338l6.85529,-6.85532l18.85085,18.8487l-18.85085,18.85463z" stroke-width="2" fill="url(#svg_32)"/>
  <path fill="#edd5cd" stroke-width="0" d="m927.7103,187.9737l-12.25031,12.24957l12.25031,12.24956l-7.00093,7.00467l-19.25122,-19.25423l19.25122,-19.25571" id="svg_4" stroke="#edd5cd" transform="rotate(-180 914.584228515625,200.2225341796875) "/>
 </g>
</svg>